<svg width="23" height="23" viewBox="0 0 23 23" fill="none" xmlns="http://www.w3.org/2000/svg">
<path d="M11.8799 22.2012C13.3766 22.2012 14.7839 21.9147 16.1016 21.3418C17.4264 20.7689 18.5938 19.9775 19.6035 18.9678C20.6133 17.958 21.4046 16.7943 21.9775 15.4766C22.5505 14.1517 22.8369 12.7409 22.8369 11.2441C22.8369 9.7474 22.5505 8.34017 21.9775 7.02246C21.4046 5.69759 20.6133 4.53027 19.6035 3.52051C18.5938 2.51074 17.4264 1.7194 16.1016 1.14648C14.7767 0.573568 13.3659 0.287109 11.8691 0.287109C10.3724 0.287109 8.96159 0.573568 7.63672 1.14648C6.31901 1.7194 5.15527 2.51074 4.14551 3.52051C3.1429 4.53027 2.35514 5.69759 1.78223 7.02246C1.20931 8.34017 0.922852 9.7474 0.922852 11.2441C0.922852 12.7409 1.20931 14.1517 1.78223 15.4766C2.35514 16.7943 3.14648 17.958 4.15625 18.9678C5.16602 19.9775 6.32975 20.7689 7.64746 21.3418C8.97233 21.9147 10.3831 22.2012 11.8799 22.2012ZM11.8799 20.375C10.6123 20.375 9.42708 20.1387 8.32422 19.666C7.22135 19.1934 6.25098 18.5417 5.41309 17.7109C4.58236 16.873 3.93066 15.9027 3.45801 14.7998C2.99251 13.6969 2.75977 12.5117 2.75977 11.2441C2.75977 9.97656 2.99251 8.79134 3.45801 7.68848C3.93066 6.58561 4.58236 5.61523 5.41309 4.77734C6.24382 3.93945 7.21061 3.28776 8.31348 2.82227C9.41634 2.34961 10.6016 2.11328 11.8691 2.11328C13.1367 2.11328 14.3219 2.34961 15.4248 2.82227C16.5348 3.28776 17.5052 3.93945 18.3359 4.77734C19.1738 5.61523 19.8291 6.58561 20.3018 7.68848C20.7744 8.79134 21.0107 9.97656 21.0107 11.2441C21.0107 12.5117 20.7744 13.6969 20.3018 14.7998C19.8363 15.9027 19.1846 16.873 18.3467 17.7109C17.5088 18.5417 16.5384 19.1934 15.4355 19.666C14.3327 20.1387 13.1475 20.375 11.8799 20.375ZM6.95996 16.6797H16.7783C16.9932 16.6797 17.1507 16.6188 17.251 16.4971C17.3584 16.3682 17.4121 16.2035 17.4121 16.0029C17.4121 15.7093 17.2975 15.3298 17.0684 14.8643C16.8464 14.3916 16.5062 13.9225 16.0479 13.457C15.5967 12.9844 15.0238 12.5869 14.3291 12.2646C13.6344 11.9424 12.8145 11.7812 11.8691 11.7812C10.9238 11.7812 10.1038 11.9424 9.40918 12.2646C8.71452 12.5869 8.13802 12.9844 7.67969 13.457C7.22852 13.9225 6.88835 14.3916 6.65918 14.8643C6.43717 15.3298 6.32617 15.7093 6.32617 16.0029C6.32617 16.2035 6.3763 16.3682 6.47656 16.4971C6.58398 16.6188 6.74512 16.6797 6.95996 16.6797ZM11.8691 10.9004C12.3776 10.9076 12.8395 10.7786 13.2549 10.5137C13.6774 10.2487 14.0104 9.89062 14.2539 9.43945C14.5046 8.98112 14.6299 8.46549 14.6299 7.89258C14.6299 7.35547 14.5046 6.86491 14.2539 6.4209C14.0104 5.96973 13.6774 5.61165 13.2549 5.34668C12.8395 5.07454 12.3776 4.93848 11.8691 4.93848C11.3607 4.93848 10.8952 5.07454 10.4727 5.34668C10.0573 5.61165 9.72428 5.96973 9.47363 6.4209C9.23014 6.86491 9.1084 7.35547 9.1084 7.89258C9.1084 8.46549 9.23014 8.97754 9.47363 9.42871C9.72428 9.87988 10.0573 10.238 10.4727 10.5029C10.8952 10.7679 11.3607 10.9004 11.8691 10.9004Z" fill="#1E1E1E"/>
</svg>
