<svg width="29" height="37" viewBox="0 0 29 37" fill="none" xmlns="http://www.w3.org/2000/svg">
<path d="M17.0098 19.8105H11.9707V13.3555C11.9707 13.1276 12.0391 12.9486 12.1758 12.8184C12.319 12.6816 12.5013 12.6133 12.7227 12.6133H16.2676C16.4954 12.6133 16.6745 12.6816 16.8047 12.8184C16.9414 12.9486 17.0098 13.1276 17.0098 13.3555V19.8105ZM5.88672 19.2246C5.88672 19.9082 6.07878 20.4388 6.46289 20.8164C6.85352 21.194 7.39388 21.3828 8.08398 21.3828H20.9258C21.6094 21.3828 22.1432 21.194 22.5273 20.8164C22.918 20.4388 23.1133 19.9082 23.1133 19.2246V11.4902L15.0859 4.76172C14.6953 4.42969 14.3047 4.42969 13.9141 4.76172L5.88672 11.4902V19.2246ZM2.83984 10.5137C2.83984 10.7155 2.91471 10.8978 3.06445 11.0605C3.21419 11.2168 3.41927 11.2949 3.67969 11.2949C3.81641 11.2949 3.9401 11.2624 4.05078 11.1973C4.16797 11.1322 4.27865 11.0605 4.38281 10.9824L14.1582 2.7793C14.2689 2.68164 14.3828 2.63281 14.5 2.63281C14.6237 2.63281 14.7409 2.68164 14.8516 2.7793L24.627 10.9824C24.7246 11.0605 24.8288 11.1322 24.9395 11.1973C25.0566 11.2624 25.1836 11.2949 25.3203 11.2949C25.5482 11.2949 25.7435 11.2298 25.9062 11.0996C26.069 10.9629 26.1504 10.7773 26.1504 10.543C26.1504 10.2695 26.0495 10.0482 25.8477 9.87891L15.6816 1.33398C15.3171 1.02799 14.9232 0.875 14.5 0.875C14.0833 0.875 13.6927 1.02799 13.3281 1.33398L3.15234 9.87891C2.94401 10.0482 2.83984 10.2598 2.83984 10.5137ZM20.6621 6.10938L23.1133 8.17969V3.66797C23.1133 3.45312 23.0482 3.28385 22.918 3.16016C22.7943 3.02995 22.625 2.96484 22.4102 2.96484H21.3652C21.1569 2.96484 20.9876 3.02995 20.8574 3.16016C20.7272 3.28385 20.6621 3.45312 20.6621 3.66797V6.10938Z" fill="#EB554D"/>
<path d="M17.5029 33.1934H11.458V35.7227H17.5029V33.1934ZM10.501 32.5977H18.4795V31.8652H14.9541V31.2695C16.5068 31.2061 17.3613 30.791 17.3564 30.0391C17.3613 29.2236 16.3311 28.8037 14.4854 28.7988C12.6494 28.8037 11.6094 29.2236 11.6143 30.0391C11.6094 30.791 12.4785 31.2061 14.0264 31.2695V31.8652H10.501V32.5977ZM10.9111 28.4863H18.0303V27.7734H14.9541V26.9629H14.0264V27.7734H10.9111V28.4863ZM12.376 35.0098V33.9062H16.6045V35.0098H12.376ZM12.6006 30.0391C12.5957 29.6387 13.2646 29.4434 14.4854 29.4336C15.7158 29.4434 16.3701 29.6387 16.3701 30.0391C16.3701 30.4346 15.7158 30.6445 14.4854 30.6445C13.2646 30.6445 12.5957 30.4346 12.6006 30.0391Z" fill="#EB554D"/>
</svg>
