<svg width="36" height="36" viewBox="0 0 36 36" fill="none" xmlns="http://www.w3.org/2000/svg">
<circle cx="18" cy="18" r="16.75" fill="white" stroke="#EB554D" stroke-width="2.5"/>
<path d="M8.79384 22.3511H10.4431L13.2299 14.6489H11.6019L9.68246 20.7908H9.56872L7.64218 14.6489H6L8.79384 22.3511Z" fill="#EB554D"/>
<path d="M17.7299 22.5C18.2275 22.5 18.6659 22.4362 19.045 22.3085C19.4289 22.1809 19.7559 22.013 20.0261 21.805C20.3009 21.5969 20.5213 21.3676 20.6872 21.117C20.8531 20.8617 20.9692 20.6064 21.0355 20.3511L21.0498 20.2872H19.5569L19.5284 20.344C19.4716 20.4764 19.3649 20.6111 19.2085 20.7482C19.0569 20.8853 18.8602 21.0012 18.6185 21.0957C18.3815 21.1856 18.0972 21.2305 17.7654 21.2305C17.3341 21.2305 16.9597 21.1359 16.6422 20.9468C16.3294 20.7577 16.0877 20.4835 15.9171 20.1241C15.7464 19.7648 15.6611 19.3322 15.6611 18.8262V18.2092C15.6611 17.6797 15.7464 17.2329 15.9171 16.8688C16.0924 16.5047 16.3294 16.2305 16.628 16.0461C16.9313 15.857 17.2749 15.7624 17.6588 15.7624C18.0427 15.7624 18.3815 15.8522 18.6754 16.0319C18.9692 16.2116 19.1991 16.4835 19.3649 16.8475C19.5355 17.2069 19.6209 17.6608 19.6209 18.2092V18.8262L20.3602 17.805H14.8863V18.9043H21.128V18.3652C21.128 17.5898 20.9882 16.9137 20.7085 16.3369C20.4289 15.7553 20.0284 15.3038 19.5071 14.9823C18.9905 14.6608 18.372 14.5 17.6517 14.5C16.936 14.5 16.3104 14.6678 15.7749 15.0035C15.2441 15.3392 14.8318 15.8073 14.5379 16.4078C14.2488 17.0083 14.1043 17.7104 14.1043 18.5142V18.5213C14.1043 19.3345 14.2488 20.039 14.5379 20.6348C14.8318 21.2305 15.2488 21.6915 15.7891 22.0177C16.3294 22.3392 16.9763 22.5 17.7299 22.5Z" fill="#EB554D"/>
<path d="M22.9621 22.3511H24.5047V17.7482C24.5047 17.3747 24.5877 17.0532 24.7536 16.7837C24.9242 16.5095 25.1564 16.2967 25.4502 16.1454C25.7488 15.9941 26.0948 15.9184 26.4882 15.9184C26.6351 15.9184 26.7749 15.9255 26.9076 15.9397C27.045 15.9539 27.1825 15.9752 27.3199 16.0035V14.5851C27.2441 14.5662 27.1445 14.5496 27.0213 14.5355C26.8981 14.5213 26.7725 14.5142 26.6445 14.5142C26.1327 14.5142 25.7014 14.6277 25.3507 14.8546C25.0047 15.0816 24.763 15.4007 24.6256 15.8121H24.5047V14.6489H22.9621V22.3511Z" fill="#EB554D"/>
<path d="M28.955 22.4645C29.2536 22.4645 29.5024 22.3629 29.7014 22.1596C29.9005 21.9563 30 21.7128 30 21.4291C30 21.1359 29.9005 20.8901 29.7014 20.6915C29.5024 20.4929 29.2536 20.3936 28.955 20.3936C28.6611 20.3936 28.4123 20.4929 28.2085 20.6915C28.0095 20.8901 27.91 21.1359 27.91 21.4291C27.91 21.7128 28.0095 21.9563 28.2085 22.1596C28.4123 22.3629 28.6611 22.4645 28.955 22.4645Z" fill="#EB554D"/>
</svg>
