<svg width="21" height="23" viewBox="0 0 21 23" fill="none" xmlns="http://www.w3.org/2000/svg">
<path d="M0.727539 17.1523C0.727539 17.5462 0.870768 17.8613 1.15723 18.0977C1.44368 18.334 1.84115 18.4521 2.34961 18.4521H6.88281C6.91146 19.1468 7.09766 19.7878 7.44141 20.375C7.79232 20.9622 8.26139 21.4349 8.84863 21.793C9.43587 22.1582 10.1055 22.3408 10.8574 22.3408C11.6165 22.3408 12.2897 22.1618 12.877 21.8037C13.4642 21.4456 13.9297 20.9694 14.2734 20.375C14.6243 19.7878 14.8141 19.1468 14.8428 18.4521H19.376C19.8844 18.4521 20.2819 18.334 20.5684 18.0977C20.8548 17.8613 20.998 17.5462 20.998 17.1523C20.998 16.7943 20.8942 16.4469 20.6865 16.1104C20.4788 15.7738 20.2174 15.4443 19.9023 15.1221C19.5944 14.7998 19.2865 14.4775 18.9785 14.1553C18.7422 13.9118 18.556 13.5931 18.4199 13.1992C18.291 12.8053 18.1943 12.3864 18.1299 11.9424C18.0654 11.4984 18.0189 11.0687 17.9902 10.6533C17.9688 9.24251 17.8184 8.00358 17.5391 6.93652C17.2669 5.8623 16.8408 4.96712 16.2607 4.25098C15.6807 3.53483 14.9144 3.00488 13.9619 2.66113C13.7829 1.95931 13.4176 1.36491 12.8662 0.87793C12.3219 0.390951 11.6523 0.147461 10.8574 0.147461C10.0697 0.147461 9.40007 0.390951 8.84863 0.87793C8.30436 1.36491 7.94271 1.95931 7.76367 2.66113C6.8112 3.00488 6.04134 3.53483 5.4541 4.25098C4.87402 4.96712 4.44792 5.8623 4.17578 6.93652C3.90365 8.00358 3.75684 9.24251 3.73535 10.6533C3.70671 11.0687 3.66016 11.4984 3.5957 11.9424C3.53125 12.3864 3.43099 12.8053 3.29492 13.1992C3.16602 13.5931 2.9834 13.9118 2.74707 14.1553C2.43913 14.4775 2.1276 14.7998 1.8125 15.1221C1.50456 15.4443 1.24674 15.7738 1.03906 16.1104C0.83138 16.4469 0.727539 16.7943 0.727539 17.1523ZM2.81152 16.8301V16.7012C2.87598 16.6009 2.9834 16.4684 3.13379 16.3037C3.28418 16.1318 3.45247 15.9456 3.63867 15.7451C3.83203 15.5446 4.02181 15.3405 4.20801 15.1328C4.40137 14.918 4.56966 14.6709 4.71289 14.3916C4.85612 14.1051 4.97786 13.7829 5.07812 13.4248C5.17839 13.0667 5.25716 12.6693 5.31445 12.2324C5.37174 11.7956 5.41471 11.3158 5.44336 10.793C5.47201 9.23177 5.63314 7.99284 5.92676 7.07617C6.22038 6.15951 6.61068 5.47917 7.09766 5.03516C7.5918 4.58398 8.14681 4.27246 8.7627 4.10059C8.89876 4.07194 9.0026 4.02181 9.07422 3.9502C9.14583 3.87142 9.18522 3.764 9.19238 3.62793C9.21387 3.06934 9.37142 2.61458 9.66504 2.26367C9.96582 1.9056 10.3633 1.72656 10.8574 1.72656C11.3587 1.72656 11.7562 1.9056 12.0498 2.26367C12.3506 2.61458 12.5117 3.06934 12.5332 3.62793C12.5332 3.764 12.569 3.87142 12.6406 3.9502C12.7194 4.02181 12.8232 4.07194 12.9521 4.10059C13.568 4.27246 14.1195 4.58398 14.6064 5.03516C15.1006 5.47917 15.4945 6.15951 15.7881 7.07617C16.0889 7.99284 16.2536 9.23177 16.2822 10.793C16.3037 11.3158 16.3431 11.7956 16.4004 12.2324C16.4648 12.6693 16.5436 13.0667 16.6367 13.4248C16.737 13.7829 16.8587 14.1051 17.002 14.3916C17.1452 14.6709 17.3135 14.918 17.5068 15.1328C17.7002 15.3405 17.89 15.5446 18.0762 15.7451C18.2695 15.9456 18.4378 16.1318 18.5811 16.3037C18.7314 16.4684 18.8389 16.6009 18.9033 16.7012V16.8301H2.81152ZM8.55859 18.4521H13.167C13.124 19.1826 12.8913 19.7591 12.4688 20.1816C12.0462 20.6113 11.5091 20.8262 10.8574 20.8262C10.2129 20.8262 9.67578 20.6113 9.24609 20.1816C8.82357 19.7591 8.5944 19.1826 8.55859 18.4521Z" fill="#1E1E1E"/>
</svg>
