<svg width="19" height="23" viewBox="0 0 19 23" fill="none" xmlns="http://www.w3.org/2000/svg">
<path d="M9.64797 6.60843C8.72665 6.60843 7.30049 5.57548 5.79862 5.61281C3.81715 5.6377 1.99975 6.74533 0.97746 8.50011C-1.07973 12.0221 0.447385 17.2242 2.4541 20.0867C3.43852 21.4805 4.59964 23.0486 6.13938 22.9988C7.61601 22.9366 8.17133 22.053 9.96349 22.053C11.743 22.053 12.2479 22.9988 13.8128 22.9615C15.4031 22.9366 16.4127 21.5427 17.3845 20.1364C18.5078 18.5186 18.9748 16.9504 19 16.8633C18.9621 16.8509 15.9079 15.6935 15.87 12.2088C15.8448 9.29661 18.2806 7.90274 18.3942 7.84051C17.0059 5.83683 14.873 5.61281 14.1284 5.56303C12.1848 5.41369 10.5567 6.60843 9.64797 6.60843ZM12.9294 3.67135C13.7497 2.70062 14.2924 1.34409 14.141 0C12.9672 0.0497811 11.5537 0.771606 10.7081 1.74234C9.95087 2.60106 9.29459 3.98248 9.47128 5.30168C10.7712 5.40124 12.109 4.64208 12.9294 3.67135Z" fill="black"/>
</svg>
