<svg width="26" height="37" viewBox="0 0 26 37" fill="none" xmlns="http://www.w3.org/2000/svg">
<path d="M4.92871 27.7734H0.973633V28.5254H3.95215C3.92285 28.8525 3.85449 29.165 3.74707 29.4629L0.53418 29.5996L0.680664 30.3516L3.40527 30.127C2.89258 30.8984 1.98926 31.5283 0.563477 31.9922L0.93457 32.7246C3.7959 31.7773 4.92383 30.0928 4.92871 27.7734ZM2.04785 35.6445H7.89746V34.8926H2.98535V32.9297H2.04785V35.6445ZM4.89941 30.5859H6.72559V33.5645H7.65332V27.0898H6.72559V29.8242H4.89941V30.5859ZM16.4619 27.0898H15.583V33.6328H16.4619V27.0898ZM9.3916 32.2559H9.95801C11.3398 32.251 12.1748 32.2119 13.1807 32.0215L13.0928 31.2793C12.1943 31.46 11.4375 31.4893 10.2803 31.4941V30.3516H12.3799V29.6289H10.2803V28.5352H12.7217V27.7832H9.3916V32.2559ZM10.7002 35.6445H16.7158V34.8926H11.6377V32.9102H10.7002V35.6445ZM12.7803 30.2832H13.8643V33.418H14.7432V27.2559H13.8643V29.5312H12.7803V30.2832ZM25.6514 33.9746H17.6436V34.7363H25.6514V33.9746ZM18.0635 31.8652L18.4248 32.6074C19.8701 32.3438 21.0713 31.6064 21.6328 30.5371C22.1992 31.6064 23.4004 32.3438 24.8506 32.6074L25.2217 31.8652C23.4297 31.5771 22.1504 30.4883 22.1064 29.1797H24.9092V28.4277H22.0967V27.2656H21.1787V28.4277H18.3662V29.1797H21.1689C21.125 30.4883 19.8359 31.5771 18.0635 31.8652Z" fill="#EB554D"/>
<path d="M12.8398 21.2168C12.944 21.2168 13.0612 21.1875 13.1914 21.1289C13.3281 21.0768 13.4486 21.0182 13.5527 20.9531C15.3887 19.7812 16.9772 18.554 18.3184 17.2715C19.666 15.9824 20.7044 14.6608 21.4336 13.3066C22.1693 11.946 22.5371 10.5723 22.5371 9.18555C22.5371 8.31966 22.3971 7.52865 22.1172 6.8125C21.8438 6.08984 21.4596 5.46484 20.9648 4.9375C20.4766 4.41016 19.9004 4.00326 19.2363 3.7168C18.5788 3.43034 17.8659 3.28711 17.0977 3.28711C16.1471 3.28711 15.3105 3.53125 14.5879 4.01953C13.8652 4.5013 13.2826 5.14583 12.8398 5.95312C12.4036 5.15234 11.8242 4.50781 11.1016 4.01953C10.3789 3.53125 9.53906 3.28711 8.58203 3.28711C7.8138 3.28711 7.10091 3.43034 6.44336 3.7168C5.78581 4.00326 5.20964 4.41016 4.71484 4.9375C4.22005 5.46484 3.83268 6.08984 3.55273 6.8125C3.2793 7.52865 3.14258 8.31966 3.14258 9.18555C3.14258 10.5723 3.50716 11.946 4.23633 13.3066C4.97201 14.6608 6.01367 15.9824 7.36133 17.2715C8.70898 18.554 10.3008 19.7812 12.1367 20.9531C12.2409 21.0182 12.3581 21.0768 12.4883 21.1289C12.625 21.1875 12.7422 21.2168 12.8398 21.2168Z" fill="#EB554D"/>
</svg>
