<svg width="12" height="13" viewBox="0 0 12 13" fill="none" xmlns="http://www.w3.org/2000/svg">
<path d="M0.546919 7.55369L4.45805 11.4648C4.81938 11.8262 5.17908 12.0084 5.53715 12.0117C5.89523 12.015 6.2533 11.8375 6.61137 11.4795L10.542 7.54393C10.9001 7.18911 11.0775 6.83266 11.0743 6.47459C11.071 6.11326 10.8887 5.75194 10.5274 5.39061L6.62114 1.48436C6.25981 1.12303 5.90011 0.940738 5.54204 0.937483C5.18396 0.934228 4.82589 1.11164 4.46782 1.46971L0.532271 5.40037C0.174198 5.7617 -0.00321122 6.1214 4.39893e-05 6.47948C0.0032992 6.83429 0.185591 7.19237 0.546919 7.55369ZM1.11333 7.0117C0.940799 6.83592 0.852909 6.65688 0.849653 6.47459C0.846398 6.2923 0.935916 6.11164 1.11821 5.9326L4.99516 2.05565C5.1742 1.87661 5.35486 1.78709 5.53715 1.78709C5.71944 1.78709 5.89848 1.87498 6.07426 2.05076L9.96098 5.93748C10.1335 6.11001 10.2214 6.28905 10.2247 6.47459C10.2279 6.65688 10.1384 6.83755 9.9561 7.01658L6.07915 10.8935C5.89685 11.0726 5.71456 11.1621 5.53227 11.1621C5.34998 11.1621 5.17257 11.0758 5.00004 10.9033L1.11333 7.0117ZM1.78227 6.73338L5.27836 10.2344C5.36951 10.3222 5.45577 10.3662 5.53715 10.3662C5.62179 10.3662 5.71131 10.3206 5.80571 10.2295L9.29692 6.73338C9.38806 6.64549 9.43201 6.55923 9.42875 6.47459C9.42875 6.38996 9.38318 6.30207 9.29204 6.21092L5.80571 2.71971C5.62667 2.54718 5.45089 2.54556 5.27836 2.71483L1.78715 6.21092C1.69275 6.30207 1.64555 6.38996 1.64555 6.47459C1.64555 6.55597 1.69112 6.64224 1.78227 6.73338Z" fill="#4478FF"/>
</svg>
