<svg width="36" height="36" viewBox="0 0 36 36" fill="none" xmlns="http://www.w3.org/2000/svg">
<circle cx="18" cy="18" r="16.75" fill="white" stroke="#EB554D" stroke-width="2.5"/>
<path d="M18 28C18.1074 28 18.2283 27.9706 18.3625 27.9118C18.5035 27.8595 18.6277 27.8007 18.7351 27.7353C20.6284 26.5588 22.2665 25.3268 23.6495 24.0392C25.0393 22.7451 26.1101 21.4183 26.862 20.0588C27.6207 18.6928 28 17.3137 28 15.9216C28 15.0523 27.8557 14.2582 27.567 13.5392C27.285 12.8137 26.8889 12.1863 26.3787 11.6569C25.8751 11.1275 25.281 10.719 24.5962 10.4314C23.9181 10.1438 23.1829 10 22.3907 10C21.4105 10 20.5478 10.2451 19.8026 10.7353C19.0574 11.219 18.4565 11.866 18 12.6765C17.5502 11.8725 16.9527 11.2255 16.2075 10.7353C15.4622 10.2451 14.5962 10 13.6093 10C12.8171 10 12.0819 10.1438 11.4038 10.4314C10.7257 10.719 10.1316 11.1275 9.62135 11.6569C9.11111 12.1863 8.71165 12.8137 8.42296 13.5392C8.14099 14.2582 8 15.0523 8 15.9216C8 17.3137 8.37597 18.6928 9.1279 20.0588C9.88654 21.4183 10.9607 22.7451 12.3505 24.0392C13.7402 25.3268 15.3817 26.5588 17.2749 27.7353C17.3823 27.8007 17.5032 27.8595 17.6375 27.9118C17.7784 27.9706 17.8993 28 18 28Z" fill="#EB554D"/>
</svg>
