<svg width="11" height="10" viewBox="0 0 11 10" fill="none" xmlns="http://www.w3.org/2000/svg">
<path d="M5.5 10C5.55908 10 5.62555 9.98366 5.6994 9.95098C5.77694 9.92193 5.84525 9.88925 5.90433 9.85294C6.94562 9.19935 7.84659 8.51489 8.60725 7.79956C9.3716 7.08061 9.96056 6.3435 10.3741 5.58824C10.7914 4.82934 11 4.06318 11 3.28976C11 2.80683 10.9206 2.36565 10.7618 1.96623C10.6067 1.56318 10.3889 1.2146 10.1083 0.920479C9.83132 0.626362 9.50453 0.399419 9.1279 0.239651C8.75495 0.0798838 8.35062 0 7.9149 0C7.3758 0 6.90131 0.136166 6.49144 0.408497C6.08157 0.677197 5.75109 1.03667 5.5 1.48693C5.2526 1.04031 4.92397 0.680828 4.5141 0.408497C4.10423 0.136166 3.6279 0 3.0851 0C2.64938 0 2.24505 0.0798838 1.8721 0.239651C1.49916 0.399419 1.17237 0.626362 0.891742 0.920479C0.611111 1.2146 0.391407 1.56318 0.232628 1.96623C0.0775428 2.36565 0 2.80683 0 3.28976C0 4.06318 0.206781 4.82934 0.620342 5.58824C1.0376 6.3435 1.6284 7.08061 2.39275 7.79956C3.1571 8.51489 4.05992 9.19935 5.10121 9.85294C5.16029 9.88925 5.22675 9.92193 5.3006 9.95098C5.37815 9.98366 5.44461 10 5.5 10Z" fill="#EB554D"/>
</svg>
