<svg width="30" height="37" viewBox="0 0 30 37" fill="none" xmlns="http://www.w3.org/2000/svg">
<path d="M17.5029 33.1934H11.458V35.7227H17.5029V33.1934ZM10.501 32.5977H18.4795V31.8652H14.9541V31.2695C16.5068 31.2061 17.3613 30.791 17.3564 30.0391C17.3613 29.2236 16.3311 28.8037 14.4854 28.7988C12.6494 28.8037 11.6094 29.2236 11.6143 30.0391C11.6094 30.791 12.4785 31.2061 14.0264 31.2695V31.8652H10.501V32.5977ZM10.9111 28.4863H18.0303V27.7734H14.9541V26.9629H14.0264V27.7734H10.9111V28.4863ZM12.376 35.0098V33.9062H16.6045V35.0098H12.376ZM12.6006 30.0391C12.5957 29.6387 13.2646 29.4434 14.4854 29.4336C15.7158 29.4434 16.3701 29.6387 16.3701 30.0391C16.3701 30.4346 15.7158 30.6445 14.4854 30.6445C13.2646 30.6445 12.5957 30.4346 12.6006 30.0391Z" fill="#A7A7A7"/>
<path d="M11.6782 20.377H17.313V13.2676C17.313 13.0462 17.2446 12.8672 17.1079 12.7305C16.9712 12.5938 16.7922 12.5254 16.5708 12.5254H12.4302C12.2023 12.5254 12.02 12.5938 11.8833 12.7305C11.7466 12.8672 11.6782 13.0462 11.6782 13.2676V20.377ZM7.85986 21.3828H21.0728C21.7694 21.3828 22.3097 21.194 22.6938 20.8164C23.078 20.4388 23.27 19.9082 23.27 19.2246V8.43359L21.6978 7.35938V18.8242C21.6978 19.1432 21.6164 19.3874 21.4536 19.5566C21.2909 19.7259 21.0532 19.8105 20.7407 19.8105H8.19189C7.87939 19.8105 7.63851 19.7259 7.46924 19.5566C7.30648 19.3874 7.2251 19.1432 7.2251 18.8242V7.36914L5.65283 8.43359V19.2246C5.65283 19.9082 5.84489 20.4388 6.229 20.8164C6.61963 21.194 7.16325 21.3828 7.85986 21.3828ZM2.84033 10.5137C2.84033 10.7155 2.9152 10.8978 3.06494 11.0605C3.21468 11.2168 3.41976 11.2949 3.68018 11.2949C3.81689 11.2949 3.94059 11.2624 4.05127 11.1973C4.16846 11.1322 4.27913 11.0605 4.3833 10.9824L14.1587 2.7793C14.2694 2.68164 14.3833 2.63281 14.5005 2.63281C14.6242 2.63281 14.7414 2.68164 14.8521 2.7793L24.6274 10.9824C24.7251 11.0605 24.8293 11.1322 24.9399 11.1973C25.0571 11.2624 25.1841 11.2949 25.3208 11.2949C25.5487 11.2949 25.744 11.2298 25.9067 11.0996C26.0695 10.9629 26.1509 10.7773 26.1509 10.543C26.1509 10.2695 26.05 10.0482 25.8481 9.87891L15.6821 1.33398C15.3175 1.02799 14.9237 0.875 14.5005 0.875C14.0838 0.875 13.6932 1.02799 13.3286 1.33398L3.15283 9.87891C2.9445 10.0482 2.84033 10.2598 2.84033 10.5137ZM20.8188 6.10938L23.27 8.17969V3.66797C23.27 3.45312 23.2049 3.28385 23.0747 3.16016C22.951 3.02995 22.7817 2.96484 22.5669 2.96484H21.522C21.3136 2.96484 21.1444 3.02995 21.0142 3.16016C20.884 3.28385 20.8188 3.45312 20.8188 3.66797V6.10938Z" fill="#A7A7A7"/>
</svg>
