<svg width="35" height="37" viewBox="0 0 35 37" fill="none" xmlns="http://www.w3.org/2000/svg">
<path d="M7.99805 27.0898H7.11914V29.3555H6.04492V27.2461H5.17578V32.1582H6.04492V30.1074H7.11914V32.4609H7.99805V27.0898ZM0.908203 28.457H3.33984V29.4629H0.927734V31.9824H1.50391C2.7832 31.9775 3.69141 31.9434 4.79492 31.7383L4.69727 30.9863C3.73535 31.1768 2.91016 31.2207 1.82617 31.2305V30.1465H4.22852V27.7148H0.908203V28.457ZM2.10938 34.209C2.09961 35.2148 3.2373 35.8154 5.06836 35.8105C6.89453 35.8154 8.04199 35.2148 8.04688 34.209C8.04199 33.2031 6.89453 32.6074 5.06836 32.6074C3.2373 32.6074 2.09961 33.2031 2.10938 34.209ZM3.02734 34.209C3.01758 33.6523 3.79395 33.3301 5.06836 33.3301C6.33789 33.3301 7.11426 33.6523 7.11914 34.209C7.11426 34.7803 6.33789 35.0928 5.06836 35.0977C3.79395 35.0928 3.01758 34.7803 3.02734 34.209ZM13.8574 27.6562H9.79492V28.3984H12.8711C12.8418 28.7061 12.7734 29.0039 12.6611 29.2822L9.35547 29.4141L9.50195 30.166L12.29 29.9512C11.748 30.6836 10.8252 31.2695 9.4043 31.6699L9.74609 32.4121C12.6074 31.5771 13.8574 29.9561 13.8574 27.6562ZM10.5273 34.1309C10.5273 35.2002 11.665 35.8105 13.5156 35.8105C15.332 35.8105 16.4795 35.2002 16.4746 34.1309C16.4795 33.0566 15.332 32.4365 13.5156 32.4316C11.665 32.4365 10.5273 33.0566 10.5273 34.1309ZM11.4551 34.1309C11.46 33.5205 12.2119 33.1689 13.5156 33.1641C14.7852 33.1689 15.5566 33.5205 15.5566 34.1309C15.5566 34.7314 14.7852 35.0879 13.5156 35.0879C12.2119 35.0879 11.46 34.7314 11.4551 34.1309ZM15.5078 32.3145H16.4355V27.0898H15.5078V32.3145ZM25.8203 32.334H17.8125V33.0957H21.3477V35.8301H22.2656V33.0957H25.8203V32.334ZM18.8672 31.5234H24.9316V30.7812H19.7754V29.834H24.6387V29.1113H19.7754V28.2129H24.834V27.4707H18.8672V31.5234ZM34.4727 34.0332H32.2754V32.0898H33.7109V31.3379H32.4023V28.6133H33.7402V27.8516H27.1484V28.6133H28.4766V31.3379H27.168V32.0898H28.6133V34.0332H26.4648V34.7949H34.4727V34.0332ZM29.3945 31.3379V28.6133H31.4941V31.3379H29.3945ZM29.541 34.0332V32.0898H31.3477V34.0332H29.541Z" fill="#A7A7A7"/>
<path d="M7.24268 21.1387H9.86963C10.6313 21.1387 11.2075 20.9564 11.5981 20.5918C11.9888 20.2272 12.1841 19.6836 12.1841 18.9609V10.6309C12.1841 9.9082 11.9888 9.36458 11.5981 9C11.2075 8.62891 10.6313 8.44336 9.86963 8.44336H7.24268C6.48096 8.44336 5.90479 8.62891 5.51416 9C5.13005 9.36458 4.93799 9.9082 4.93799 10.6309V18.9609C4.93799 19.6836 5.13005 20.2272 5.51416 20.5918C5.90479 20.9564 6.48096 21.1387 7.24268 21.1387ZM7.49658 19.6641C7.12549 19.6641 6.86507 19.5892 6.71533 19.4395C6.56559 19.2962 6.49072 19.0423 6.49072 18.6777V10.9141C6.49072 10.543 6.56559 10.2858 6.71533 10.1426C6.86507 9.99284 7.12549 9.91797 7.49658 9.91797H9.61572C9.99333 9.91797 10.257 9.99284 10.4067 10.1426C10.5565 10.2858 10.6313 10.543 10.6313 10.9141V18.6777C10.6313 19.0423 10.5565 19.2962 10.4067 19.4395C10.257 19.5892 9.99333 19.6641 9.61572 19.6641H7.49658ZM16.022 21.1387H18.6587C19.4204 21.1387 19.9933 20.9564 20.3774 20.5918C20.7681 20.2272 20.9634 19.6836 20.9634 18.9609V7.78906C20.9634 7.06641 20.7681 6.52279 20.3774 6.1582C19.9933 5.78711 19.4204 5.60156 18.6587 5.60156H16.022C15.2603 5.60156 14.6841 5.78711 14.2935 6.1582C13.9093 6.52279 13.7173 7.06641 13.7173 7.78906V18.9609C13.7173 19.6836 13.9093 20.2272 14.2935 20.5918C14.6841 20.9564 15.2603 21.1387 16.022 21.1387ZM16.2856 19.6641C15.908 19.6641 15.6444 19.5892 15.4946 19.4395C15.3449 19.2962 15.27 19.0423 15.27 18.6777V8.07227C15.27 7.70768 15.3449 7.45052 15.4946 7.30078C15.6444 7.15104 15.908 7.07617 16.2856 7.07617H18.4048C18.7759 7.07617 19.0363 7.15104 19.186 7.30078C19.3358 7.45052 19.4106 7.70768 19.4106 8.07227V18.6777C19.4106 19.0423 19.3358 19.2962 19.186 19.4395C19.0363 19.5892 18.7759 19.6641 18.4048 19.6641H16.2856ZM24.8013 21.1387H27.438C28.1997 21.1387 28.7759 20.9564 29.1665 20.5918C29.5571 20.2272 29.7524 19.6836 29.7524 18.9609V4.9375C29.7524 4.21484 29.5571 3.67122 29.1665 3.30664C28.7759 2.93555 28.1997 2.75 27.438 2.75H24.8013C24.0461 2.75 23.4731 2.93555 23.0825 3.30664C22.6984 3.67122 22.5063 4.21484 22.5063 4.9375V18.9609C22.5063 19.6836 22.6984 20.2272 23.0825 20.5918C23.4731 20.9564 24.0461 21.1387 24.8013 21.1387ZM25.0649 19.6641C24.6938 19.6641 24.4334 19.5892 24.2837 19.4395C24.134 19.2962 24.0591 19.0423 24.0591 18.6777V5.2207C24.0591 4.84961 24.134 4.59245 24.2837 4.44922C24.4334 4.29948 24.6938 4.22461 25.0649 4.22461H27.1841C27.5617 4.22461 27.8254 4.29948 27.9751 4.44922C28.1248 4.59245 28.1997 4.84961 28.1997 5.2207V18.6777C28.1997 19.0423 28.1248 19.2962 27.9751 19.4395C27.8254 19.5892 27.5617 19.6641 27.1841 19.6641H25.0649Z" fill="#A7A7A7"/>
</svg>
