<svg width="22" height="22" viewBox="0 0 22 22" fill="none" xmlns="http://www.w3.org/2000/svg">
<path d="M0.470703 9.22461C0.470703 10.4062 0.692708 11.5163 1.13672 12.5547C1.58073 13.5859 2.19661 14.4954 2.98438 15.2832C3.77214 16.071 4.68164 16.6868 5.71289 17.1309C6.7513 17.5749 7.86133 17.7969 9.04297 17.7969C9.97396 17.7969 10.862 17.6536 11.707 17.3672C12.5521 17.0807 13.3255 16.6868 14.0273 16.1855L19.3125 21.4814C19.4414 21.6032 19.5811 21.6927 19.7314 21.75C19.889 21.8145 20.0537 21.8467 20.2256 21.8467C20.4691 21.8467 20.6839 21.7894 20.8701 21.6748C21.0563 21.5674 21.1995 21.417 21.2998 21.2236C21.4072 21.0303 21.4609 20.8154 21.4609 20.5791C21.4609 20.4072 21.4287 20.2461 21.3643 20.0957C21.307 19.9453 21.221 19.8128 21.1064 19.6982L15.8535 14.4131C16.4049 13.6969 16.8346 12.8984 17.1426 12.0176C17.4577 11.1367 17.6152 10.2057 17.6152 9.22461C17.6152 8.04297 17.3932 6.93652 16.9492 5.90527C16.5052 4.86686 15.8893 3.95378 15.1016 3.16602C14.3138 2.37826 13.4007 1.76237 12.3623 1.31836C11.3311 0.874349 10.2246 0.652344 9.04297 0.652344C7.86133 0.652344 6.7513 0.874349 5.71289 1.31836C4.68164 1.76237 3.77214 2.37826 2.98438 3.16602C2.19661 3.95378 1.58073 4.86686 1.13672 5.90527C0.692708 6.93652 0.470703 8.04297 0.470703 9.22461ZM2.30762 9.22461C2.30762 8.29362 2.47949 7.4235 2.82324 6.61426C3.17415 5.79785 3.65755 5.08171 4.27344 4.46582C4.89648 3.84277 5.61263 3.35938 6.42188 3.01562C7.23828 2.66471 8.11198 2.48926 9.04297 2.48926C9.97396 2.48926 10.8441 2.66471 11.6533 3.01562C12.4697 3.35938 13.1859 3.84277 13.8018 4.46582C14.4176 5.08171 14.901 5.79785 15.252 6.61426C15.6029 7.4235 15.7783 8.29362 15.7783 9.22461C15.7783 10.1556 15.6029 11.0293 15.252 11.8457C14.901 12.6549 14.4176 13.3675 13.8018 13.9834C13.1859 14.5993 12.4697 15.0827 11.6533 15.4336C10.8441 15.7845 9.97396 15.96 9.04297 15.96C8.11198 15.96 7.23828 15.7845 6.42188 15.4336C5.61263 15.0827 4.89648 14.5993 4.27344 13.9834C3.65755 13.3675 3.17415 12.6549 2.82324 11.8457C2.47949 11.0293 2.30762 10.1556 2.30762 9.22461Z" fill="#1E1E1E"/>
</svg>
