<svg width="26" height="37" viewBox="0 0 26 37" fill="none" xmlns="http://www.w3.org/2000/svg">
<path d="M4.92871 27.7734H0.973633V28.5254H3.95215C3.92285 28.8525 3.85449 29.165 3.74707 29.4629L0.53418 29.5996L0.680664 30.3516L3.40527 30.127C2.89258 30.8984 1.98926 31.5283 0.563477 31.9922L0.93457 32.7246C3.7959 31.7773 4.92383 30.0928 4.92871 27.7734ZM2.04785 35.6445H7.89746V34.8926H2.98535V32.9297H2.04785V35.6445ZM4.89941 30.5859H6.72559V33.5645H7.65332V27.0898H6.72559V29.8242H4.89941V30.5859ZM16.4619 27.0898H15.583V33.6328H16.4619V27.0898ZM9.3916 32.2559H9.95801C11.3398 32.251 12.1748 32.2119 13.1807 32.0215L13.0928 31.2793C12.1943 31.46 11.4375 31.4893 10.2803 31.4941V30.3516H12.3799V29.6289H10.2803V28.5352H12.7217V27.7832H9.3916V32.2559ZM10.7002 35.6445H16.7158V34.8926H11.6377V32.9102H10.7002V35.6445ZM12.7803 30.2832H13.8643V33.418H14.7432V27.2559H13.8643V29.5312H12.7803V30.2832ZM25.6514 33.9746H17.6436V34.7363H25.6514V33.9746ZM18.0635 31.8652L18.4248 32.6074C19.8701 32.3438 21.0713 31.6064 21.6328 30.5371C22.1992 31.6064 23.4004 32.3438 24.8506 32.6074L25.2217 31.8652C23.4297 31.5771 22.1504 30.4883 22.1064 29.1797H24.9092V28.4277H22.0967V27.2656H21.1787V28.4277H18.3662V29.1797H21.1689C21.125 30.4883 19.8359 31.5771 18.0635 31.8652Z" fill="#A7A7A7"/>
<path d="M3.15283 9.18555C3.15283 10.5723 3.51742 11.946 4.24658 13.3066C4.98226 14.6608 6.02393 15.9824 7.37158 17.2715C8.71924 18.554 10.311 19.7812 12.147 20.9531C12.2511 21.0182 12.3683 21.0768 12.4985 21.1289C12.6353 21.1875 12.7524 21.2168 12.8501 21.2168C12.9543 21.2168 13.0715 21.1875 13.2017 21.1289C13.3384 21.0768 13.4588 21.0182 13.563 20.9531C15.3989 19.7812 16.9875 18.554 18.3286 17.2715C19.6763 15.9824 20.7147 14.6608 21.4438 13.3066C22.1795 11.946 22.5474 10.5723 22.5474 9.18555C22.5474 8.31966 22.4074 7.52865 22.1274 6.8125C21.854 6.08984 21.4666 5.46484 20.9653 4.9375C20.4705 4.41016 19.8846 4.00326 19.2075 3.7168C18.5369 3.43034 17.8045 3.28711 17.0103 3.28711C16.1053 3.28711 15.2948 3.48568 14.5786 3.88281C13.869 4.27995 13.2928 4.80729 12.8501 5.46484C12.4139 4.80729 11.8377 4.27995 11.1216 3.88281C10.4054 3.48568 9.59489 3.28711 8.68994 3.28711C7.90218 3.28711 7.16976 3.43034 6.49268 3.7168C5.8221 4.00326 5.23617 4.41016 4.73486 4.9375C4.23356 5.46484 3.84294 6.08984 3.56299 6.8125C3.28955 7.52865 3.15283 8.31966 3.15283 9.18555ZM4.7251 9.18555C4.7251 8.31966 4.89437 7.56445 5.23291 6.91992C5.57796 6.26888 6.04671 5.76432 6.63916 5.40625C7.23812 5.04167 7.9152 4.85938 8.67041 4.85938C9.28239 4.85938 9.81299 4.97005 10.2622 5.19141C10.7114 5.40625 11.0923 5.67643 11.4048 6.00195C11.7173 6.32747 11.9777 6.65299 12.186 6.97852C12.3228 7.17383 12.4367 7.30729 12.5278 7.37891C12.6255 7.44401 12.7329 7.47656 12.8501 7.47656C12.9673 7.47656 13.0715 7.44076 13.1626 7.36914C13.2537 7.29753 13.3709 7.16732 13.5142 6.97852C13.7355 6.65951 14.0024 6.33724 14.3149 6.01172C14.634 5.67969 15.0116 5.40625 15.4478 5.19141C15.8905 4.97005 16.4178 4.85938 17.0298 4.85938C17.785 4.85938 18.4588 5.04167 19.0513 5.40625C19.6502 5.76432 20.119 6.26888 20.4575 6.91992C20.8026 7.56445 20.9751 8.31966 20.9751 9.18555C20.9751 10.0905 20.757 11.0085 20.3208 11.9395C19.8846 12.8639 19.2922 13.7721 18.5435 14.6641C17.8013 15.556 16.9549 16.4089 16.0044 17.2227C15.0604 18.0299 14.0773 18.7721 13.0552 19.4492C12.9445 19.5273 12.8761 19.5664 12.8501 19.5664C12.8241 19.5664 12.759 19.5273 12.6548 19.4492C11.6326 18.7721 10.6463 18.0299 9.6958 17.2227C8.75179 16.4089 7.90544 15.556 7.15674 14.6641C6.40804 13.7721 5.81559 12.8639 5.37939 11.9395C4.9432 11.0085 4.7251 10.0905 4.7251 9.18555Z" fill="#A7A7A7"/>
</svg>
