<svg width="35" height="37" viewBox="0 0 35 37" fill="none" xmlns="http://www.w3.org/2000/svg">
<path d="M7.99805 27.0898H7.11914V29.3555H6.04492V27.2461H5.17578V32.1582H6.04492V30.1074H7.11914V32.4609H7.99805V27.0898ZM0.908203 28.457H3.33984V29.4629H0.927734V31.9824H1.50391C2.7832 31.9775 3.69141 31.9434 4.79492 31.7383L4.69727 30.9863C3.73535 31.1768 2.91016 31.2207 1.82617 31.2305V30.1465H4.22852V27.7148H0.908203V28.457ZM2.10938 34.209C2.09961 35.2148 3.2373 35.8154 5.06836 35.8105C6.89453 35.8154 8.04199 35.2148 8.04688 34.209C8.04199 33.2031 6.89453 32.6074 5.06836 32.6074C3.2373 32.6074 2.09961 33.2031 2.10938 34.209ZM3.02734 34.209C3.01758 33.6523 3.79395 33.3301 5.06836 33.3301C6.33789 33.3301 7.11426 33.6523 7.11914 34.209C7.11426 34.7803 6.33789 35.0928 5.06836 35.0977C3.79395 35.0928 3.01758 34.7803 3.02734 34.209ZM13.8574 27.6562H9.79492V28.3984H12.8711C12.8418 28.7061 12.7734 29.0039 12.6611 29.2822L9.35547 29.4141L9.50195 30.166L12.29 29.9512C11.748 30.6836 10.8252 31.2695 9.4043 31.6699L9.74609 32.4121C12.6074 31.5771 13.8574 29.9561 13.8574 27.6562ZM10.5273 34.1309C10.5273 35.2002 11.665 35.8105 13.5156 35.8105C15.332 35.8105 16.4795 35.2002 16.4746 34.1309C16.4795 33.0566 15.332 32.4365 13.5156 32.4316C11.665 32.4365 10.5273 33.0566 10.5273 34.1309ZM11.4551 34.1309C11.46 33.5205 12.2119 33.1689 13.5156 33.1641C14.7852 33.1689 15.5566 33.5205 15.5566 34.1309C15.5566 34.7314 14.7852 35.0879 13.5156 35.0879C12.2119 35.0879 11.46 34.7314 11.4551 34.1309ZM15.5078 32.3145H16.4355V27.0898H15.5078V32.3145ZM25.8203 32.334H17.8125V33.0957H21.3477V35.8301H22.2656V33.0957H25.8203V32.334ZM18.8672 31.5234H24.9316V30.7812H19.7754V29.834H24.6387V29.1113H19.7754V28.2129H24.834V27.4707H18.8672V31.5234ZM34.4727 34.0332H32.2754V32.0898H33.7109V31.3379H32.4023V28.6133H33.7402V27.8516H27.1484V28.6133H28.4766V31.3379H27.168V32.0898H28.6133V34.0332H26.4648V34.7949H34.4727V34.0332ZM29.3945 31.3379V28.6133H31.4941V31.3379H29.3945ZM29.541 34.0332V32.0898H31.3477V34.0332H29.541Z" fill="#EB554D"/>
<path d="M7.10596 21.0618H10.0063C10.6834 21.0618 11.1912 20.899 11.5298 20.5735C11.8748 20.2545 12.0474 19.776 12.0474 19.1379V10.427C12.0474 9.78898 11.8748 9.30721 11.5298 8.98169C11.1912 8.65617 10.6834 8.49341 10.0063 8.49341H7.10596C6.43538 8.49341 5.92757 8.65617 5.58252 8.98169C5.24398 9.30721 5.07471 9.78898 5.07471 10.427V19.1379C5.07471 19.776 5.24398 20.2545 5.58252 20.5735C5.92757 20.899 6.43538 21.0618 7.10596 21.0618ZM15.8853 21.0618H18.7954C19.466 21.0618 19.9705 20.899 20.3091 20.5735C20.6541 20.2545 20.8267 19.776 20.8267 19.1379V7.58521C20.8267 6.94718 20.6541 6.46541 20.3091 6.13989C19.9705 5.81437 19.466 5.65161 18.7954 5.65161H15.8853C15.2147 5.65161 14.7069 5.81437 14.3618 6.13989C14.0233 6.46541 13.854 6.94718 13.854 7.58521V19.1379C13.854 19.776 14.0233 20.2545 14.3618 20.5735C14.7069 20.899 15.2147 21.0618 15.8853 21.0618ZM24.6646 21.0618H27.5747C28.2518 21.0618 28.7596 20.899 29.0981 20.5735C29.4432 20.2545 29.6157 19.776 29.6157 19.1379V4.73364C29.6157 4.09562 29.4432 3.61385 29.0981 3.28833C28.7596 2.96281 28.2518 2.80005 27.5747 2.80005H24.6646C24.0005 2.80005 23.4959 2.96281 23.1509 3.28833C22.8123 3.61385 22.6431 4.09562 22.6431 4.73364V19.1379C22.6431 19.776 22.8123 20.2545 23.1509 20.5735C23.4959 20.899 24.0005 21.0618 24.6646 21.0618Z" fill="#EB554D"/>
</svg>
