<svg width="35" height="35" viewBox="0 0 35 35" fill="none" xmlns="http://www.w3.org/2000/svg">
<circle cx="17.5" cy="17.5" r="17.5" fill="#FEE500"/>
<path d="M17.6487 10C12.861 10 9 13.0888 9 16.8386C9 19.2726 10.6062 21.4039 13.0155 22.6209L12.2 25.6665C12.1846 25.7121 12.1823 25.7611 12.1932 25.808C12.2041 25.8549 12.2278 25.8979 12.2618 25.9321C12.3113 25.9757 12.375 25.9998 12.4409 26C12.4957 25.9956 12.5476 25.974 12.5892 25.9382L16.0981 23.5722C16.6161 23.6437 17.1382 23.6808 17.661 23.6834C22.4425 23.6834 26.3097 20.5946 26.3097 16.8386C26.3097 13.0826 22.4302 10 17.6487 10Z" fill="#3C1B22"/>
</svg>
