<svg width="36" height="36" viewBox="0 0 36 36" fill="none" xmlns="http://www.w3.org/2000/svg">
<path d="M3.0479 10.5247C4.46444 12.0697 6.06096 13.394 7.83745 14.4976C9.62554 15.5895 11.5298 16.4259 13.5501 17.0068C15.582 17.576 17.672 17.8606 19.82 17.8606C22.3861 17.8606 24.865 17.4366 27.2569 16.5886C29.6488 15.7289 31.8258 14.5092 33.7881 12.9293L32.6734 10.7164C30.8853 12.2614 28.894 13.4463 26.6996 14.2711C24.5051 15.0842 22.2119 15.4908 19.82 15.4908C16.7431 15.5024 13.8345 14.8577 11.0943 13.5566C8.36575 12.2556 6.04935 10.4318 4.14514 8.08519L3.0479 10.5247ZM1.14949 20.4221C3.41364 22.3737 5.88679 23.9245 8.56894 25.0745C11.2627 26.2246 14.0493 26.9622 16.9289 27.2875C19.8084 27.6128 22.6763 27.5198 25.5327 27.0087C28.389 26.486 31.1292 25.5276 33.7533 24.1336L33.6836 21.4501C31.1524 22.9371 28.4761 23.971 25.6546 24.5518C22.8447 25.1326 20.0232 25.2604 17.1901 24.9351C14.357 24.6099 11.6168 23.849 8.96952 22.6525C6.33382 21.4443 3.93033 19.818 1.75907 17.7735L1.14949 20.4221ZM9.82293 32.4105L12.627 33.0378C12.0116 31.5741 11.5356 30.0755 11.1988 28.5421C10.8621 26.9971 10.688 25.4288 10.6763 23.8374C10.537 20.9797 10.8447 18.2033 11.5994 15.5082C12.3541 12.8132 13.4978 10.2982 15.0305 7.96321C16.5747 5.61665 18.4557 3.5547 20.6734 1.77735L18.1829 0.784124C15.9884 2.71249 14.1306 4.90803 12.6096 7.37076C11.1001 9.82188 9.97387 12.4472 9.23077 15.2469C8.48766 18.0465 8.17997 20.9158 8.30769 23.8548C8.33091 25.3069 8.46444 26.7473 8.70827 28.1762C8.96372 29.605 9.33527 31.0165 9.82293 32.4105ZM21.4049 34.153L23.6168 33.1597C21.9681 30.8712 20.7083 28.3911 19.8374 25.7193C18.9666 23.0358 18.5312 20.2711 18.5312 17.425C18.5312 14.7299 18.9144 12.122 19.6807 9.60116C20.4586 7.06873 21.5907 4.71055 23.0769 2.52662L20.7605 1.70765C19.2627 4.04259 18.119 6.54598 17.3295 9.21781C16.5515 11.8896 16.1626 14.6254 16.1626 17.425C16.1626 20.4569 16.6096 23.3901 17.5036 26.2246C18.3977 29.0591 19.6981 31.7018 21.4049 34.153ZM31.5588 27.7057L33.1611 25.9109C31.1988 24.8074 29.5036 23.4192 28.0755 21.7464C26.6473 20.062 25.5385 18.1917 24.7489 16.1355C23.971 14.0678 23.5704 11.8955 23.5472 9.61859C23.5356 8.41046 23.6343 7.20813 23.8433 6.01162C24.0639 4.8151 24.4006 3.65344 24.8534 2.52662L22.5718 1.8819C22.0958 3.11326 21.7417 4.37948 21.5094 5.68054C21.2772 6.96999 21.1669 8.28848 21.1785 9.63601C21.2017 12.1336 21.6313 14.5208 22.4673 16.7977C23.3149 19.0745 24.5109 21.1481 26.0552 23.0184C27.611 24.8887 29.4456 26.4511 31.5588 27.7057ZM10.537 17.6689C11.3149 17.6689 11.9826 17.3901 12.5399 16.8325C13.0972 16.2633 13.3759 15.5837 13.3759 14.7938C13.3759 14.0039 13.0972 13.3301 12.5399 12.7725C11.9826 12.2149 11.3149 11.9361 10.537 11.9361C9.73585 11.9361 9.0566 12.2149 8.49927 12.7725C7.94194 13.3301 7.66328 14.0039 7.66328 14.7938C7.66328 15.5837 7.94194 16.2633 8.49927 16.8325C9.0566 17.3901 9.73585 17.6689 10.537 17.6689ZM23.9129 19.1152C24.6909 19.1152 25.3527 18.8364 25.8984 18.2788C26.4557 17.7096 26.7344 17.03 26.7344 16.2401C26.7344 15.4618 26.4557 14.7996 25.8984 14.2536C25.3527 13.696 24.6909 13.4172 23.9129 13.4172C23.1118 13.4172 22.4325 13.696 21.8752 14.2536C21.3295 14.7996 21.0566 15.4618 21.0566 16.2401C21.0566 17.03 21.3295 17.7096 21.8752 18.2788C22.4325 18.8364 23.1118 19.1152 23.9129 19.1152ZM18.7054 29.03C19.4949 29.03 20.1684 28.7512 20.7257 28.1936C21.283 27.636 21.5617 26.9564 21.5617 26.1549C21.5617 25.3533 21.283 24.6738 20.7257 24.1162C20.1684 23.5586 19.4949 23.2798 18.7054 23.2798C17.8926 23.2798 17.2075 23.5586 16.6502 24.1162C16.0929 24.6738 15.8142 25.3533 15.8142 26.1549C15.8142 26.9564 16.0929 27.636 16.6502 28.1936C17.2075 28.7512 17.8926 29.03 18.7054 29.03ZM17.9913 36C20.4528 36 22.7692 35.5295 24.9405 34.5886C27.1118 33.6592 29.0276 32.364 30.688 30.7028C32.3483 29.0416 33.6488 27.1249 34.5893 24.9526C35.5298 22.7803 36 20.4627 36 18C36 15.5373 35.5298 13.2197 34.5893 11.0474C33.6488 8.87512 32.3483 6.96418 30.688 5.31462C29.0276 3.65344 27.1118 2.35237 24.9405 1.41142C22.7692 0.470474 20.447 0 17.9739 0C15.5123 0 13.1959 0.470474 11.0247 1.41142C8.86502 2.35237 6.95501 3.65344 5.29463 5.31462C3.64586 6.96418 2.35123 8.87512 1.41074 11.0474C0.470247 13.2197 0 15.5373 0 18C0 20.4627 0.470247 22.7803 1.41074 24.9526C2.35123 27.1249 3.64586 29.0416 5.29463 30.7028C6.95501 32.364 8.87083 33.6592 11.0421 34.5886C13.2134 35.5295 15.5298 36 17.9913 36ZM17.9913 33.212C15.9129 33.212 13.9565 32.8112 12.1219 32.0097C10.2874 31.2197 8.67344 30.1278 7.28012 28.7338C5.88679 27.3282 4.78955 25.7076 3.98839 23.8722C3.19884 22.0368 2.80406 20.0794 2.80406 18C2.80406 15.9206 3.19884 13.9632 3.98839 12.1278C4.78955 10.2924 5.88679 8.67764 7.28012 7.28364C8.67344 5.88964 10.2874 4.79768 12.1219 4.00774C13.9565 3.2062 15.9071 2.80542 17.9739 2.80542C20.0522 2.80542 22.0087 3.2062 23.8433 4.00774C25.6778 4.79768 27.2975 5.88964 28.7025 7.28364C30.1074 8.67764 31.2046 10.2924 31.9942 12.1278C32.7954 13.9632 33.1959 15.9206 33.1959 18C33.1959 20.0794 32.7954 22.0368 31.9942 23.8722C31.2046 25.7076 30.1074 27.3282 28.7025 28.7338C27.3091 30.1278 25.6952 31.2197 23.8607 32.0097C22.0261 32.8112 20.0697 33.212 17.9913 33.212Z" fill="#EB554D"/>
</svg>
