<svg width="30" height="37" viewBox="0 0 30 37" fill="none" xmlns="http://www.w3.org/2000/svg">
<path d="M8.47803 27.0801H7.58936V30.5859H6.46631V27.2559H5.59717V35.3809H6.46631V31.3477H7.58936V35.8301H8.47803V27.0801ZM1.39795 33.6035H1.96436C2.90674 33.6084 3.90771 33.5449 5.10889 33.3301L5.01123 32.5195C4.01514 32.7148 3.13135 32.7783 2.32568 32.7881V28.1152H1.39795V33.6035ZM19.3667 27.0801H18.439V29.3066H16.8081V30.0684H18.439V32.2852H19.3667V27.0801ZM12.0718 31.4941L12.5601 32.2363C13.605 31.8506 14.3716 31.0645 14.7524 30.0879C15.1333 30.9521 15.856 31.6553 16.8374 31.9922L17.3159 31.2598C15.9927 30.8105 15.2017 29.7314 15.2065 28.623V28.4375H17.0815V27.6855H12.3647V28.4375H14.2593V28.6328C14.2642 29.8389 13.4292 31.0205 12.0718 31.4941ZM13.478 34.1797C13.4731 35.2197 14.5962 35.8252 16.437 35.8301C18.2681 35.8252 19.3911 35.2197 19.396 34.1797C19.3911 33.1396 18.2681 32.5342 16.437 32.5293C14.5962 32.5342 13.4731 33.1396 13.478 34.1797ZM14.396 34.1797C14.3911 33.584 15.1528 33.2471 16.437 33.252C17.7114 33.2471 18.4731 33.584 18.478 34.1797C18.4731 34.7705 17.7114 35.1074 16.437 35.0977C15.1528 35.1074 14.3911 34.7705 14.396 34.1797ZM28.7222 33.9746H25.1577V32.1777H27.7749V27.6758H26.8569V29.1797H22.5601V27.6758H21.6323V32.1777H24.2397V33.9746H20.7144V34.7461H28.7222V33.9746ZM22.5601 31.4258V29.9316H26.8569V31.4258H22.5601Z" fill="#EB554D"/>
<path d="M8.29736 20.8945H21.3931C21.9139 20.8945 22.3208 20.7773 22.6138 20.543C22.9132 20.3151 23.063 19.9993 23.063 19.5957C23.063 18.9707 22.8709 18.3099 22.4868 17.6133C22.1092 16.9167 21.5623 16.2656 20.8462 15.6602C20.1366 15.0482 19.2739 14.5534 18.2583 14.1758C17.2492 13.7917 16.1099 13.5996 14.8403 13.5996C13.5773 13.5996 12.438 13.7917 11.4224 14.1758C10.4132 14.5534 9.55062 15.0482 8.83447 15.6602C8.11833 16.2656 7.57145 16.9167 7.19385 17.6133C6.81624 18.3099 6.62744 18.9707 6.62744 19.5957C6.62744 19.9993 6.77393 20.3151 7.06689 20.543C7.36637 20.7773 7.77653 20.8945 8.29736 20.8945ZM14.8501 11.8516C15.5467 11.8516 16.1912 11.6628 16.7837 11.2852C17.3761 10.901 17.8514 10.3835 18.2095 9.73242C18.5741 9.08138 18.7563 8.34896 18.7563 7.53516C18.7563 6.73438 18.5741 6.01823 18.2095 5.38672C17.8514 4.7487 17.3761 4.2474 16.7837 3.88281C16.1912 3.51823 15.5467 3.33594 14.8501 3.33594C14.1535 3.33594 13.509 3.52148 12.9165 3.89258C12.3241 4.26367 11.8455 4.76823 11.481 5.40625C11.1229 6.04427 10.9438 6.76042 10.9438 7.55469C10.9438 8.36198 11.1229 9.09115 11.481 9.74219C11.8455 10.3867 12.3241 10.901 12.9165 11.2852C13.509 11.6628 14.1535 11.8516 14.8501 11.8516Z" fill="#EB554D"/>
</svg>
