<svg width="19" height="19" viewBox="0 0 19 19" fill="none" xmlns="http://www.w3.org/2000/svg">
<path fill-rule="evenodd" clip-rule="evenodd" d="M18.62 9.7159C18.62 9.04227 18.5595 8.39454 18.4473 7.77272H9.5V11.4475H14.6127C14.3925 12.635 13.7232 13.6411 12.717 14.3148V16.6984H15.7873C17.5836 15.0445 18.62 12.6091 18.62 9.7159Z" fill="#4285F4"/>
<path fill-rule="evenodd" clip-rule="evenodd" d="M9.49998 19C12.065 19 14.2154 18.1493 15.7873 16.6984L12.717 14.3148C11.8663 14.8848 10.7782 15.2216 9.49998 15.2216C7.02566 15.2216 4.93135 13.5504 4.1843 11.305H1.01044V13.7664C2.57362 16.8711 5.78635 19 9.49998 19Z" fill="#34A853"/>
<path fill-rule="evenodd" clip-rule="evenodd" d="M4.18432 11.305C3.99432 10.735 3.88636 10.1261 3.88636 9.49999C3.88636 8.87385 3.99432 8.26499 4.18432 7.69499V5.23363H1.01045C0.367045 6.51613 0 7.96704 0 9.49999C0 11.0329 0.367045 12.4839 1.01045 13.7664L4.18432 11.305Z" fill="#FBBC05"/>
<path fill-rule="evenodd" clip-rule="evenodd" d="M9.49998 3.77841C10.8948 3.77841 12.147 4.25773 13.1316 5.19909L15.8563 2.47432C14.2111 0.941364 12.0607 0 9.49998 0C5.78635 0 2.57362 2.12886 1.01044 5.23364L4.1843 7.695C4.93135 5.44954 7.02566 3.77841 9.49998 3.77841Z" fill="#EA4335"/>
</svg>
