<svg width="33" height="26" viewBox="0 0 33 26" fill="none" xmlns="http://www.w3.org/2000/svg">
<path d="M16.4648 14.3848C17.0605 14.3848 17.6758 14.0674 18.3105 13.4326L31.0693 0.761719C30.5029 0.253906 29.502 0 28.0664 0H4.43848C3.17871 0 2.29492 0.234375 1.78711 0.703125L14.6191 13.4326C15.2441 14.0674 15.8594 14.3848 16.4648 14.3848ZM0.395508 23.2324L10.9131 12.8027L0.410156 2.44629C0.136719 2.91504 0 3.68164 0 4.74609V20.9473C0 22.0117 0.131836 22.7734 0.395508 23.2324ZM4.80469 25.708H28.4326C29.7119 25.708 30.6152 25.459 31.1426 24.9609L20.4346 14.3262L19.5264 15.249C18.5303 16.2061 17.5098 16.6846 16.4648 16.6846C15.4102 16.6846 14.3848 16.2061 13.3887 15.249L12.4805 14.3408L1.78711 24.9609C2.38281 25.459 3.38867 25.708 4.80469 25.708ZM32.4902 23.2178C32.7441 22.749 32.8711 21.9922 32.8711 20.9473V4.74609C32.8711 3.69141 32.7393 2.93457 32.4756 2.47559L22.002 12.8027L32.4902 23.2178Z" fill="#EB554D"/>
</svg>
