<svg width="32" height="26" viewBox="0 0 32 26" fill="none" xmlns="http://www.w3.org/2000/svg">
<path d="M4.80469 22.9395H26.6455C28.2275 22.9395 29.4238 22.5391 30.2344 21.7383C31.0449 20.9375 31.4502 19.751 31.4502 18.1787V7.63184C31.4502 6.06934 31.0449 4.8877 30.2344 4.08691C29.4238 3.27637 28.2275 2.87109 26.6455 2.87109H4.80469C3.22266 2.87109 2.02637 3.27637 1.21582 4.08691C0.405273 4.8877 0 6.06934 0 7.63184V18.1787C0 19.751 0.405273 20.9375 1.21582 21.7383C2.02637 22.5391 3.22266 22.9395 4.80469 22.9395ZM4.93652 3.7793H7.5V1.27441C7.5 0.893555 7.37793 0.585938 7.13379 0.351562C6.88965 0.117188 6.58203 0 6.21094 0C5.83984 0 5.53223 0.117188 5.28809 0.351562C5.05371 0.585938 4.93652 0.893555 4.93652 1.27441V3.7793ZM9.69727 3.7793H12.2461V1.27441C12.2461 0.893555 12.124 0.585938 11.8799 0.351562C11.6455 0.117188 11.3428 0 10.9717 0C10.5908 0 10.2832 0.117188 10.0488 0.351562C9.81445 0.585938 9.69727 0.893555 9.69727 1.27441V3.7793ZM14.4434 3.7793H17.0068V1.27441C17.0068 0.893555 16.8848 0.585938 16.6406 0.351562C16.3965 0.117188 16.0889 0 15.7178 0C15.3467 0 15.0391 0.117188 14.7949 0.351562C14.5605 0.585938 14.4434 0.893555 14.4434 1.27441V3.7793ZM19.2041 3.7793H21.7529V1.27441C21.7529 0.893555 21.6357 0.585938 21.4014 0.351562C21.167 0.117188 20.8594 0 20.4785 0C20.1074 0 19.7998 0.117188 19.5557 0.351562C19.3213 0.585938 19.2041 0.893555 19.2041 1.27441V3.7793ZM23.9502 3.7793H26.5137V1.27441C26.5137 0.893555 26.3916 0.585938 26.1475 0.351562C25.9131 0.117188 25.6104 0 25.2393 0C24.8682 0 24.5605 0.117188 24.3164 0.351562C24.0723 0.585938 23.9502 0.893555 23.9502 1.27441V3.7793ZM4.93652 22.0605V24.5361C4.93652 24.9072 5.05371 25.2148 5.28809 25.459C5.53223 25.7031 5.83984 25.8252 6.21094 25.8252C6.58203 25.8252 6.88965 25.7031 7.13379 25.459C7.37793 25.2148 7.5 24.9072 7.5 24.5361V22.0605H4.93652ZM9.69727 22.0605V24.5361C9.69727 24.9072 9.81445 25.2148 10.0488 25.459C10.2832 25.7031 10.5908 25.8252 10.9717 25.8252C11.3428 25.8252 11.6455 25.7031 11.8799 25.459C12.124 25.2148 12.2461 24.9072 12.2461 24.5361V22.0605H9.69727ZM14.4434 22.0605V24.5361C14.4434 24.9072 14.5605 25.2148 14.7949 25.459C15.0391 25.7031 15.3467 25.8252 15.7178 25.8252C16.0889 25.8252 16.3965 25.7031 16.6406 25.459C16.8848 25.2148 17.0068 24.9072 17.0068 24.5361V22.0605H14.4434ZM19.2041 22.0605V24.5361C19.2041 24.9072 19.3213 25.2148 19.5557 25.459C19.7998 25.7031 20.1074 25.8252 20.4785 25.8252C20.8594 25.8252 21.167 25.7031 21.4014 25.459C21.6357 25.2148 21.7529 24.9072 21.7529 24.5361V22.0605H19.2041ZM23.9502 22.0605V24.5361C23.9502 24.9072 24.0723 25.2148 24.3164 25.459C24.5605 25.7031 24.8682 25.8252 25.2393 25.8252C25.6104 25.8252 25.9131 25.7031 26.1475 25.459C26.3916 25.2148 26.5137 24.9072 26.5137 24.5361V22.0605H23.9502Z" fill="#EB554D"/>
</svg>
