<svg width="35" height="27" viewBox="0 0 35 27" fill="none" xmlns="http://www.w3.org/2000/svg">
<path d="M5.17212 26.1201H29.7231C31.184 26.1201 32.2887 25.7459 33.0372 24.9974C33.7947 24.2579 34.1734 23.1668 34.1734 21.7239V7.53439C34.1734 6.09154 33.7947 5.00038 33.0372 4.26092C32.2887 3.51244 31.184 3.1382 29.7231 3.1382H26.1115C25.7508 3.1382 25.4577 3.11566 25.2323 3.07057C25.0158 3.01646 24.8174 2.92628 24.6371 2.80003C24.4657 2.67378 24.2719 2.49794 24.0554 2.27249L22.9868 1.10919C22.6351 0.739461 22.2519 0.464418 21.8371 0.284061C21.4313 0.0946871 20.8857 0 20.2003 0H14.6408C13.9465 0 13.3964 0.0946871 12.9906 0.284061C12.5848 0.464418 12.2015 0.739461 11.8408 1.10919L10.7722 2.27249C10.4566 2.60615 10.168 2.8361 9.90648 2.96235C9.64496 3.07959 9.24817 3.1382 8.71612 3.1382H5.17212C3.71123 3.1382 2.60655 3.51244 1.85807 4.26092C1.10959 5.00038 0.735352 6.09154 0.735352 7.53439V21.7239C0.735352 23.1668 1.10959 24.2579 1.85807 24.9974C2.60655 25.7459 3.71123 26.1201 5.17212 26.1201ZM17.4544 21.8863C16.4354 21.8863 15.484 21.7014 14.6003 21.3317C13.7165 20.9529 12.941 20.4299 12.2737 19.7626C11.6154 19.0952 11.0968 18.3197 10.7181 17.436C10.3393 16.5522 10.15 15.5963 10.15 14.5683C10.15 13.5493 10.3393 12.5979 10.7181 11.7141C11.0968 10.8304 11.6154 10.0549 12.2737 9.38755C12.941 8.72023 13.7165 8.20171 14.6003 7.83198C15.484 7.45323 16.4354 7.26385 17.4544 7.26385C18.798 7.26385 20.0245 7.5885 21.1337 8.23778C22.2429 8.88706 23.1221 9.7663 23.7714 10.8755C24.4207 11.9847 24.7453 13.2156 24.7453 14.5683C24.7453 15.5963 24.5559 16.5522 24.1772 17.436C23.8074 18.3197 23.2889 19.0952 22.6216 19.7626C21.9543 20.4299 21.1788 20.9529 20.295 21.3317C19.4113 21.7014 18.4644 21.8863 17.4544 21.8863ZM17.4544 19.465C18.3562 19.465 19.1768 19.2485 19.9163 18.8157C20.6557 18.3738 21.2419 17.7831 21.6747 17.0437C22.1166 16.3042 22.3375 15.4791 22.3375 14.5683C22.3375 13.6665 22.1166 12.8459 21.6747 12.1064C21.2419 11.367 20.6557 10.7763 19.9163 10.3344C19.1768 9.89255 18.3562 9.67161 17.4544 9.67161C16.5526 9.67161 15.732 9.89255 14.9925 10.3344C14.2531 10.7763 13.6624 11.367 13.2205 12.1064C12.7787 12.8459 12.5577 13.6665 12.5577 14.5683C12.5577 15.4791 12.7787 16.3042 13.2205 17.0437C13.6624 17.7831 14.2531 18.3738 14.9925 18.8157C15.732 19.2485 16.5526 19.465 17.4544 19.465ZM25.6245 9.60398C25.6245 9.12603 25.8004 8.71121 26.1521 8.35952C26.5128 7.99881 26.9411 7.81845 27.4371 7.81845C27.9151 7.81845 28.3299 7.99881 28.6816 8.35952C29.0423 8.71121 29.2226 9.12603 29.2226 9.60398C29.2226 10.109 29.0423 10.5328 28.6816 10.8755C28.3299 11.2182 27.9151 11.3895 27.4371 11.3895C26.9411 11.3985 26.5128 11.2317 26.1521 10.889C25.8004 10.5373 25.6245 10.109 25.6245 9.60398Z" fill="#EB554D"/>
</svg>
