<svg width="30" height="37" viewBox="0 0 30 37" fill="none" xmlns="http://www.w3.org/2000/svg">
<path d="M8.47803 27.0801H7.58936V30.5859H6.46631V27.2559H5.59717V35.3809H6.46631V31.3477H7.58936V35.8301H8.47803V27.0801ZM1.39795 33.6035H1.96436C2.90674 33.6084 3.90771 33.5449 5.10889 33.3301L5.01123 32.5195C4.01514 32.7148 3.13135 32.7783 2.32568 32.7881V28.1152H1.39795V33.6035ZM19.3667 27.0801H18.439V29.3066H16.8081V30.0684H18.439V32.2852H19.3667V27.0801ZM12.0718 31.4941L12.5601 32.2363C13.605 31.8506 14.3716 31.0645 14.7524 30.0879C15.1333 30.9521 15.856 31.6553 16.8374 31.9922L17.3159 31.2598C15.9927 30.8105 15.2017 29.7314 15.2065 28.623V28.4375H17.0815V27.6855H12.3647V28.4375H14.2593V28.6328C14.2642 29.8389 13.4292 31.0205 12.0718 31.4941ZM13.478 34.1797C13.4731 35.2197 14.5962 35.8252 16.437 35.8301C18.2681 35.8252 19.3911 35.2197 19.396 34.1797C19.3911 33.1396 18.2681 32.5342 16.437 32.5293C14.5962 32.5342 13.4731 33.1396 13.478 34.1797ZM14.396 34.1797C14.3911 33.584 15.1528 33.2471 16.437 33.252C17.7114 33.2471 18.4731 33.584 18.478 34.1797C18.4731 34.7705 17.7114 35.1074 16.437 35.0977C15.1528 35.1074 14.3911 34.7705 14.396 34.1797ZM28.7222 33.9746H25.1577V32.1777H27.7749V27.6758H26.8569V29.1797H22.5601V27.6758H21.6323V32.1777H24.2397V33.9746H20.7144V34.7461H28.7222V33.9746ZM22.5601 31.4258V29.9316H26.8569V31.4258H22.5601Z" fill="#A7A7A7"/>
<path d="M8.70752 21.1582H20.9829C22.578 21.1582 23.3755 20.6374 23.3755 19.5957C23.3755 18.9577 23.1802 18.2773 22.7896 17.5547C22.3989 16.832 21.8325 16.1517 21.0903 15.5137C20.3547 14.8691 19.4595 14.3451 18.4048 13.9414C17.3566 13.5378 16.1717 13.3359 14.8501 13.3359C13.522 13.3359 12.3306 13.5378 11.2759 13.9414C10.2277 14.3451 9.33252 14.8691 8.59033 15.5137C7.85465 16.1517 7.2915 16.832 6.90088 17.5547C6.51025 18.2773 6.31494 18.9577 6.31494 19.5957C6.31494 20.6374 7.11247 21.1582 8.70752 21.1582ZM8.24854 19.6836C8.11833 19.6836 8.02393 19.6641 7.96533 19.625C7.91325 19.5859 7.88721 19.5143 7.88721 19.4102C7.88721 19.013 8.03695 18.554 8.33643 18.0332C8.64242 17.5059 9.09163 16.998 9.68408 16.5098C10.2765 16.0215 11.0057 15.6178 11.8716 15.2988C12.7375 14.9733 13.7303 14.8105 14.8501 14.8105C15.9699 14.8105 16.9595 14.9733 17.8188 15.2988C18.6847 15.6178 19.4139 16.0215 20.0063 16.5098C20.5988 16.998 21.0448 17.5059 21.3442 18.0332C21.6502 18.554 21.8032 19.013 21.8032 19.4102C21.8032 19.5143 21.7739 19.5859 21.7153 19.625C21.6632 19.6641 21.5754 19.6836 21.4517 19.6836H8.24854ZM14.8501 12.125C15.6248 12.125 16.3312 11.9167 16.9692 11.5C17.6073 11.0833 18.1151 10.5299 18.4927 9.83984C18.8768 9.14323 19.0688 8.375 19.0688 7.53516C19.0688 6.70182 18.88 5.94987 18.5024 5.2793C18.1248 4.60221 17.617 4.0651 16.979 3.66797C16.341 3.27083 15.6313 3.07227 14.8501 3.07227C14.0754 3.07227 13.369 3.27409 12.731 3.67773C12.0929 4.08138 11.5819 4.62174 11.1978 5.29883C10.8201 5.97591 10.6313 6.72786 10.6313 7.55469C10.6313 8.38802 10.8201 9.15299 11.1978 9.84961C11.5819 10.5397 12.0929 11.0931 12.731 11.5098C13.369 11.9199 14.0754 12.125 14.8501 12.125ZM14.8501 10.6504C14.3748 10.6504 13.9354 10.5137 13.5317 10.2402C13.1346 9.96029 12.8123 9.58594 12.5649 9.11719C12.3241 8.64844 12.2036 8.1276 12.2036 7.55469C12.2036 6.98828 12.3241 6.48047 12.5649 6.03125C12.8058 5.57552 13.1248 5.21419 13.522 4.94727C13.9256 4.68034 14.3683 4.54688 14.8501 4.54688C15.3384 4.54688 15.7811 4.67708 16.1782 4.9375C16.5819 5.19792 16.9009 5.55599 17.1353 6.01172C17.3761 6.46094 17.4966 6.96875 17.4966 7.53516C17.4966 8.10807 17.3761 8.63216 17.1353 9.10742C16.8944 9.57617 16.5721 9.95052 16.1685 10.2305C15.7713 10.5104 15.3319 10.6504 14.8501 10.6504Z" fill="#A7A7A7"/>
</svg>
